<svg xmlns="http://www.w3.org/2000/svg" viewBox="0 0 200 200">
<style>
	.a{fill:#404548;}
	.b{fill:#c9c9c9;}
</style>
<title>Moteur</title>
<path class="a" d="M100,159.94A59.9,59.9,0,1,1,159.88,100v0A60,60,0,0,1,100,159.94Zm0-100.26a40.38,40.38,0,1,0,40.37,40.38h0A40.42,40.42,0,0,0,100,59.68Z"/>
<path class="b" d="M106.62,200a12,12,0,0,0,12.13-11.79v-.3c0-2.86.18-5.73,0-8.58-.2-2.48.52-3.75,3.07-4.31a48.76,48.76,0,0,0,8.1-2.71c3.56-1.49,7.3-5,10.41-4.44s5.54,5,8.47,7.59c5.55,4.88,12.11,4.81,17.53-.24,2.92-2.74,5.78-5.62,8.56-8.54,5.51-5.8,5.51-12.47,0-18.39-2-2.19-4.16-4.32-6.36-6.34-1.29-1.19-1.35-2.12-.45-3.65a61.93,61.93,0,0,0,7-16.84c.53-2.18,1.6-2.86,3.8-2.71,3.11.19,6.25.11,9.36,0A12,12,0,0,0,199.93,107c.09-4.68.09-9.37,0-14a12,12,0,0,0-11.72-11.72,89.46,89.46,0,0,0-9,0c-2.51.2-3.73-.58-4.3-3.1a49.18,49.18,0,0,0-2.71-8.11c-1.49-3.55-5-7.29-4.42-10.4s5-5.61,7.59-8.53c4.89-5.54,4.8-12.08-.27-17.52-2.74-2.93-5.62-5.78-8.54-8.56-5.7-5.42-12.3-5.51-18.1-.24-2.3,2.09-4.51,4.32-6.62,6.61-1.21,1.31-2.15,1.34-3.65.43a69.88,69.88,0,0,0-13.1-5.93c-6.39-2.26-6.78-2.3-6.31-9.13C119.65,5,114.17,0,101.52,0H93.38C86.23,0,81.5,5.25,81.26,12.25c-.06,1.69,0,3.39,0,5.08,0,6.39,0,6.39-6.16,8.6-1.59.56-3.2,1.11-4.74,1.79-3.66,1.61-7.58,5-10.82,4.45S53.68,27,50.75,24.36c-4.54-4.1-10.54-4.49-15.34-.75a70.13,70.13,0,0,0-11.63,11.6c-3.9,4.88-3.54,11,.71,15.62a86.46,86.46,0,0,0,6.35,6.35c1.85,1.64,2.26,3,.81,5.28a50.26,50.26,0,0,0-3.91,8.05c-1.41,3.46-1.66,8.36-4.16,10.14s-7.27.51-11,.62C5.3,81.47.27,86.38.09,93.56q-.18,6.45,0,12.89c.18,7.18,5.21,12.1,12.46,12.28,3,.08,6,.13,9,0,2.08-.12,3,.68,3.49,2.66a62,62,0,0,0,6.83,16.51c1.17,2,.87,3.2-.74,4.67-2.31,2.09-4.51,4.32-6.62,6.63-4.25,4.65-4.62,10.73-.71,15.62a72.18,72.18,0,0,0,11.28,11.3c5,4.06,11.15,3.67,15.95-.77,2.29-2.13,4.52-4.33,6.63-6.63,1.36-1.49,2.51-1.71,4.35-.65a64.75,64.75,0,0,0,16.87,7,2.76,2.76,0,0,1,2.49,3,2.51,2.51,0,0,1,0,.27c-.15,3.11-.12,6.24,0,9.37a12.18,12.18,0,0,0,12.12,12.24h0ZM100,160a59.9,59.9,0,1,1,59.89-59.91v0A60,60,0,0,1,100,159.94Z"/>
</svg>
