<svg xmlns="http://www.w3.org/2000/svg" viewBox="0 0 200 200">
<defs><style>
	.a{fill:#c9c9c9;}
	.b{fill:#404548;}
</style></defs>
<title>Social</title>
<path class="a" d="M147.48,66.12a46.56,46.56,0,0,1-4.61,20.18,31.37,31.37,0,0,0,6.55.7,31,31,0,1,0-18.08-56.23A46.73,46.73,0,0,1,147.48,66.12Z"/>
<path class="a" d="M124.55,106.37a71.86,71.86,0,0,1,39.27,32.94H200a50.19,50.19,0,0,0-52.25-48,50.86,50.86,0,0,0-8.33,1A47.19,47.19,0,0,1,124.55,106.37Z"/>
<path class="a" d="M77.13,106.61A47.09,47.09,0,0,1,62,92.53,50.18,50.18,0,0,0,0,139.31H38.58A71.87,71.87,0,0,1,77.13,106.61Z"/>
<path class="a" d="M58.18,85.81A46.75,46.75,0,0,1,69,31.66,31,31,0,1,0,58.18,85.81Z"/>
<path class="b" d="M124.55,106.37a46.82,46.82,0,1,0-47.42.24,71.64,71.64,0,0,0-47.54,67.45,6.64,6.64,0,0,0,6.64,6.65H166.17a6.65,6.65,0,0,0,6.65-6.65A71.64,71.64,0,0,0,124.55,106.37ZM67.12,66.12a33.53,33.53,0,1,1,33.53,33.53A33.53,33.53,0,0,1,67.12,66.12ZM43.26,167.41a58.32,58.32,0,0,1,115.88,0Z"/>
</svg>
