<svg xmlns="http://www.w3.org/2000/svg" viewBox="0 0 200 200">
<defs><style>
	.a{fill:#c9c9c9;}
	.b{fill:#404548;}
</style></defs>
<title>Vérificateur</title>
<path class="a" d="M115.46,29.58a51.19,51.19,0,1,0,51.19,51.18A51.19,51.19,0,0,0,115.46,29.58Zm-7.57,28.74a25.21,25.21,0,0,0-15.57,15.9,6.53,6.53,0,0,1-12.42-4A38.4,38.4,0,0,1,103.58,46a6.54,6.54,0,1,1,4.31,12.35Z"/>
<path class="b" d="M115.45,0A80.76,80.76,0,0,0,53.16,132.15,19.55,19.55,0,0,0,38,137.83L9.51,166.28a19.61,19.61,0,0,0,0,27.72l.26.26a19.61,19.61,0,0,0,27.72,0l28.45-28.45a19.56,19.56,0,0,0,5.41-17.41A80.74,80.74,0,0,0,196.23,80.77v0A80.77,80.77,0,0,0,115.45,0Zm0,148.47a67.7,67.7,0,1,1,67.7-67.7A67.7,67.7,0,0,1,115.47,148.47Z"/>
</svg>
