<svg xmlns="http://www.w3.org/2000/svg" viewBox="0 0 200 200">
<defs><style>
	.a{fill:#c9c9c9;}
	.b{fill:#fff;}
	.c{fill:#404548;}
</style></defs>
<title>Focus</title>
<circle class="a" cx="100" cy="100" r="100"/>
<path class="b" d="M100,30a70,70,0,1,0,70,70A70,70,0,0,0,100,30Zm0,102.84A32.84,32.84,0,1,1,132.84,100,32.85,32.85,0,0,1,100,132.84Z"/>
<path class="c" d="M193.4,19H182.61V6.59A6.61,6.61,0,0,0,171.32,2L147.9,25.38a6.62,6.62,0,0,0-2,4.68V46.2l-50,50a6.61,6.61,0,0,0,9.35,9.35l50-50.05h14.8a6.62,6.62,0,0,0,5.36-2.76c2-2.15,12.85-12.92,22.51-22.39A6.61,6.61,0,0,0,193.4,19Z"/>
</svg>
