<svg xmlns="http://www.w3.org/2000/svg" viewBox="0 0 200 200">
<defs><style>.a{fill:#C9C9C9;}</style></defs>
<title>Update</title>
<path class="a" d="M100,176.3c-42.1,0-76.3-34.2-76.3-76.3c0-42.1,34.2-76.3,76.3-76.3s76.3,34.2,76.3,76.3c0,4.7-3.8,8.5-8.5,8.5
	s-8.5-3.8-8.5-8.5c0-32.7-26.6-59.3-59.3-59.3c-32.7,0-59.3,26.6-59.3,59.3s26.6,59.3,59.3,59.3c16.3,0,31.5-6.5,42.8-18.3
	c3.2-3.4,8.6-3.5,12-0.2c3.4,3.2,3.5,8.6,0.2,12C140.5,168,121,176.3,100,176.3z"/>
<path class="a" d="M183.7,87.2c3.6-2.9,8.7-2.7,12.1,0.4c3.7,3.4,4.2,9,1.3,13.1c-3.5,4.1-11.4,13.1-16.6,18.2
	c-5.1,5.1-14,10.4-23.1,0.8l-17.5-17.8c-4-3.8-4.3-10.1-0.6-14.2c3.6-3.6,9.5-3.6,13.1,0c0,0,0,0,0,0l0,0l0.6,0.6
	c4.5,4.5,14.2,14.6,15.2,15.7L183.7,87.2z"/>
</svg>
